HIERARCHY
ROOT Hips
{
	OFFSET -0.001494 105.246208 1.801262
	CHANNELS 6 Xposition Yposition Zposition Xrotation Yrotation Zrotation
	JOINT Spine
	{
		OFFSET 0.000000 5.245270 0.258842
		CHANNELS 6 Xposition Yposition Zposition Xrotation Yrotation Zrotation
		JOINT Spine1
		{
			OFFSET -0.031371 11.044922 -0.697583
			CHANNELS 6 Xposition Yposition Zposition Xrotation Yrotation Zrotation
			JOINT Spine2
			{
				OFFSET -0.035852 8.068886 -1.087744
				CHANNELS 6 Xposition Yposition Zposition Xrotation Yrotation Zrotation
				JOINT Neck
				{
					OFFSET -0.040334 18.919525 -3.736110
					CHANNELS 6 Xposition Yposition Zposition Xrotation Yrotation Zrotation
					JOINT Head
					{
						OFFSET 0.000000 8.672989 3.319307
						CHANNELS 6 Xposition Yposition Zposition Xrotation Yrotation Zrotation
						JOINT HeadTop_End
						{
							OFFSET 0.000000 17.183868 4.948500
							CHANNELS 6 Xposition Yposition Zposition Xrotation Yrotation Zrotation
							End Site
							{
								OFFSET 0.000000 17.882202 0.000000
							}
						}
					}
				}
				JOINT RightShoulder
				{
					OFFSET -6.576708 15.024460 -2.119623
					CHANNELS 6 Xposition Yposition Zposition Xrotation Yrotation Zrotation
					JOINT RightArm
					{
						OFFSET -8.685034 -1.766235 -2.569614
						CHANNELS 6 Xposition Yposition Zposition Xrotation Yrotation Zrotation
						JOINT RightForeArm
						{
							OFFSET -24.573875 -0.000076 0.000008
							CHANNELS 6 Xposition Yposition Zposition Xrotation Yrotation Zrotation
							JOINT RightHand
							{
								OFFSET -23.096600 0.000000 -0.000057
								CHANNELS 6 Xposition Yposition Zposition Xrotation Yrotation Zrotation
								JOINT RightHandThumb1
								{
									OFFSET -3.660328 -1.517685 2.006158
									CHANNELS 6 Xposition Yposition Zposition Xrotation Yrotation Zrotation
									JOINT RightHandThumb2
									{
										OFFSET -2.341873 -1.352051 1.352051
										CHANNELS 6 Xposition Yposition Zposition Xrotation Yrotation Zrotation
										JOINT RightHandThumb3
										{
											OFFSET -3.105766 -1.793182 1.793095
											CHANNELS 6 Xposition Yposition Zposition Xrotation Yrotation Zrotation
											JOINT RightHandThumb4
											{
												OFFSET -2.400726 -1.635406 1.500034
												CHANNELS 6 Xposition Yposition Zposition Xrotation Yrotation Zrotation
												End Site
												{
													OFFSET 0.000000 3.269272 0.000000
												}
											}
										}
									}
								}
								JOINT RightHandIndex1
								{
									OFFSET -11.104465 -0.228546 2.326702
									CHANNELS 6 Xposition Yposition Zposition Xrotation Yrotation Zrotation
									JOINT RightHandIndex2
									{
										OFFSET -2.594727 -0.000015 0.000042
										CHANNELS 6 Xposition Yposition Zposition Xrotation Yrotation Zrotation
										JOINT RightHandIndex3
										{
											OFFSET -1.969856 -0.000046 -0.000008
											CHANNELS 6 Xposition Yposition Zposition Xrotation Yrotation Zrotation
											JOINT RightHandIndex4
											{
												OFFSET -2.509735 0.055679 -0.085040
												CHANNELS 6 Xposition Yposition Zposition Xrotation Yrotation Zrotation
												End Site
												{
													OFFSET 0.000000 2.511795 0.000000
												}
											}
										}
									}
								}
								JOINT RightHandMiddle1
								{
									OFFSET -11.447567 -0.000046 -0.000002
									CHANNELS 6 Xposition Yposition Zposition Xrotation Yrotation Zrotation
									JOINT RightHandMiddle2
									{
										OFFSET -2.882370 -0.000046 -0.000004
										CHANNELS 6 Xposition Yposition Zposition Xrotation Yrotation Zrotation
										JOINT RightHandMiddle3
										{
											OFFSET -2.055771 0.000046 -0.000019
											CHANNELS 6 Xposition Yposition Zposition Xrotation Yrotation Zrotation
											JOINT RightHandMiddle4
											{
												OFFSET -2.746132 -0.000015 -0.000031
												CHANNELS 6 Xposition Yposition Zposition Xrotation Yrotation Zrotation
												End Site
												{
													OFFSET 0.000000 2.746124 0.000000
												}
											}
										}
									}
								}
								JOINT RightHandRing1
								{
									OFFSET -10.605587 0.267212 -2.247445
									CHANNELS 6 Xposition Yposition Zposition Xrotation Yrotation Zrotation
									JOINT RightHandRing2
									{
										OFFSET -3.015953 0.000015 -0.000019
										CHANNELS 6 Xposition Yposition Zposition Xrotation Yrotation Zrotation
										JOINT RightHandRing3
										{
											OFFSET -2.233109 -0.006912 -0.037389
											CHANNELS 6 Xposition Yposition Zposition Xrotation Yrotation Zrotation
											JOINT RightHandRing4
											{
												OFFSET -2.304543 0.000015 -0.000048
												CHANNELS 6 Xposition Yposition Zposition Xrotation Yrotation Zrotation
												End Site
												{
													OFFSET 0.000000 2.304535 0.000000
												}
											}
										}
									}
								}
								JOINT RightHandPinky1
								{
									OFFSET -9.628193 -0.343552 -4.027740
									CHANNELS 6 Xposition Yposition Zposition Xrotation Yrotation Zrotation
									JOINT RightHandPinky2
									{
										OFFSET -2.737686 0.000015 -0.000008
										CHANNELS 6 Xposition Yposition Zposition Xrotation Yrotation Zrotation
										JOINT RightHandPinky3
										{
											OFFSET -1.441856 0.000031 -0.000046
											CHANNELS 6 Xposition Yposition Zposition Xrotation Yrotation Zrotation
											JOINT RightHandPinky4
											{
												OFFSET -2.097328 -0.000031 0.000040
												CHANNELS 6 Xposition Yposition Zposition Xrotation Yrotation Zrotation
												End Site
												{
													OFFSET 0.000000 2.097336 0.000000
												}
											}
										}
									}
								}
							}
						}
					}
				}
				JOINT LeftShoulder
				{
					OFFSET 6.711155 15.024460 -2.119623
					CHANNELS 6 Xposition Yposition Zposition Xrotation Yrotation Zrotation
					JOINT LeftArm
					{
						OFFSET 8.685034 -1.766235 -2.569614
						CHANNELS 6 Xposition Yposition Zposition Xrotation Yrotation Zrotation
						JOINT LeftForeArm
						{
							OFFSET 24.573874 -0.000076 0.000008
							CHANNELS 6 Xposition Yposition Zposition Xrotation Yrotation Zrotation
							JOINT LeftHand
							{
								OFFSET 23.096603 0.000000 -0.000057
								CHANNELS 6 Xposition Yposition Zposition Xrotation Yrotation Zrotation
								JOINT LeftHandThumb1
								{
									OFFSET 3.660324 -1.517685 2.006158
									CHANNELS 6 Xposition Yposition Zposition Xrotation Yrotation Zrotation
									JOINT LeftHandThumb2
									{
										OFFSET 2.341873 -1.352051 1.352051
										CHANNELS 6 Xposition Yposition Zposition Xrotation Yrotation Zrotation
										JOINT LeftHandThumb3
										{
											OFFSET 3.105766 -1.793182 1.793095
											CHANNELS 6 Xposition Yposition Zposition Xrotation Yrotation Zrotation
											JOINT LeftHandThumb4
											{
												OFFSET 2.400726 -1.635406 1.500034
												CHANNELS 6 Xposition Yposition Zposition Xrotation Yrotation Zrotation
												End Site
												{
													OFFSET 0.000000 3.269272 0.000000
												}
											}
										}
									}
								}
								JOINT LeftHandIndex1
								{
									OFFSET 11.104462 -0.228546 2.326702
									CHANNELS 6 Xposition Yposition Zposition Xrotation Yrotation Zrotation
									JOINT LeftHandIndex2
									{
										OFFSET 2.594727 -0.000015 0.000042
										CHANNELS 6 Xposition Yposition Zposition Xrotation Yrotation Zrotation
										JOINT LeftHandIndex3
										{
											OFFSET 1.969856 -0.000046 -0.000008
											CHANNELS 6 Xposition Yposition Zposition Xrotation Yrotation Zrotation
											JOINT LeftHandIndex4
											{
												OFFSET 2.509735 0.055679 -0.085040
												CHANNELS 6 Xposition Yposition Zposition Xrotation Yrotation Zrotation
												End Site
												{
													OFFSET 0.000000 2.511795 0.000000
												}
											}
										}
									}
								}
								JOINT LeftHandMiddle1
								{
									OFFSET 11.447563 -0.000046 -0.000002
									CHANNELS 6 Xposition Yposition Zposition Xrotation Yrotation Zrotation
									JOINT LeftHandMiddle2
									{
										OFFSET 2.882378 -0.000046 -0.000004
										CHANNELS 6 Xposition Yposition Zposition Xrotation Yrotation Zrotation
										JOINT LeftHandMiddle3
										{
											OFFSET 2.055763 0.000046 -0.000019
											CHANNELS 6 Xposition Yposition Zposition Xrotation Yrotation Zrotation
											JOINT LeftHandMiddle4
											{
												OFFSET 2.746132 -0.000015 -0.000031
												CHANNELS 6 Xposition Yposition Zposition Xrotation Yrotation Zrotation
												End Site
												{
													OFFSET 0.000000 2.746124 0.000000
												}
											}
										}
									}
								}
								JOINT LeftHandRing1
								{
									OFFSET 10.605583 0.267212 -2.247445
									CHANNELS 6 Xposition Yposition Zposition Xrotation Yrotation Zrotation
									JOINT LeftHandRing2
									{
										OFFSET 3.015953 0.000015 -0.000019
										CHANNELS 6 Xposition Yposition Zposition Xrotation Yrotation Zrotation
										JOINT LeftHandRing3
										{
											OFFSET 2.233116 -0.006912 -0.037389
											CHANNELS 6 Xposition Yposition Zposition Xrotation Yrotation Zrotation
											JOINT LeftHandRing4
											{
												OFFSET 2.304535 0.000015 -0.000048
												CHANNELS 6 Xposition Yposition Zposition Xrotation Yrotation Zrotation
												End Site
												{
													OFFSET 0.000000 2.304535 0.000000
												}
											}
										}
									}
								}
								JOINT LeftHandPinky1
								{
									OFFSET 9.628189 -0.343552 -4.027740
									CHANNELS 6 Xposition Yposition Zposition Xrotation Yrotation Zrotation
									JOINT LeftHandPinky2
									{
										OFFSET 2.737694 0.000015 -0.000008
										CHANNELS 6 Xposition Yposition Zposition Xrotation Yrotation Zrotation
										JOINT LeftHandPinky3
										{
											OFFSET 1.441856 0.000031 -0.000046
											CHANNELS 6 Xposition Yposition Zposition Xrotation Yrotation Zrotation
											JOINT LeftHandPinky4
											{
												OFFSET 2.097328 -0.000031 0.000040
												CHANNELS 6 Xposition Yposition Zposition Xrotation Yrotation Zrotation
												End Site
												{
													OFFSET 0.000000 2.097336 0.000000
												}
											}
										}
									}
								}
							}
						}
					}
				}
			}
		}
	}
	JOINT LeftUpLeg
	{
		OFFSET 9.688764 -5.685173 -1.688624
		CHANNELS 6 Xposition Yposition Zposition Xrotation Yrotation Zrotation
		JOINT LeftLeg
		{
			OFFSET -0.649575 -43.138977 1.439056
			CHANNELS 6 Xposition Yposition Zposition Xrotation Yrotation Zrotation
			JOINT LeftFoot
			{
				OFFSET 0.663087 -40.700974 -4.209043
				CHANNELS 6 Xposition Yposition Zposition Xrotation Yrotation Zrotation
				JOINT LeftToeBase
				{
					OFFSET 0.862034 -15.666403 8.614094
					CHANNELS 6 Xposition Yposition Zposition Xrotation Yrotation Zrotation
					JOINT LeftToe_End
					{
						OFFSET 2.007552 -0.054584 13.323666
						CHANNELS 6 Xposition Yposition Zposition Xrotation Yrotation Zrotation
						End Site
						{
							OFFSET 0.000000 13.474172 0.000000
						}
					}
				}
			}
		}
	}
	JOINT RightUpLeg
	{
		OFFSET -9.688764 -5.685173 -1.688624
		CHANNELS 6 Xposition Yposition Zposition Xrotation Yrotation Zrotation
		JOINT RightLeg
		{
			OFFSET 0.663486 -43.138771 1.438943
			CHANNELS 6 Xposition Yposition Zposition Xrotation Yrotation Zrotation
			JOINT RightFoot
			{
				OFFSET -0.649920 -40.701214 -4.208930
				CHANNELS 6 Xposition Yposition Zposition Xrotation Yrotation Zrotation
				JOINT RightToeBase
				{
					OFFSET -0.862031 -15.666408 8.614103
					CHANNELS 6 Xposition Yposition Zposition Xrotation Yrotation Zrotation
					JOINT RightToe_End
					{
						OFFSET -2.007559 -0.054583 13.323669
						CHANNELS 6 Xposition Yposition Zposition Xrotation Yrotation Zrotation
						End Site
						{
							OFFSET 0.000000 13.474177 0.000000
						}
					}
				}
			}
		}
	}
}
MOTION
Frames: 3
Frame Time: 0.033333
-1.520126 99.167068 4.530488 2.131132 -22.300178 2.792548 0.000000 5.245264 0.258842 -1.449854 2.270146 -2.723194 -0.031371 11.044932 -0.697584 2.695025 0.287352 0.233137 -0.035853 8.068897 -1.087744 2.692668 0.300605 0.243934 -0.040334 18.919548 -3.736109 0.292329 1.506423 -0.701144 -0.000001 8.672996 3.319308 -5.021153 9.914258 -11.697784 0.000000 17.183868 4.948501 0.000000 0.000001 0.000001 -6.576710 15.024497 -2.119623 -0.268279 -2.240988 -7.547340 -8.685038 -1.766253 -2.569618 -73.923759 -3.121881 33.080392 -24.573868 -0.000076 0.000001 0.000222 138.777723 -0.000318 -23.096586 -0.000015 -0.000040 -43.416569 15.754975 -4.156591 -3.660323 -1.517699 2.006160 -2.627596 -23.317463 -9.852206 -2.341869 -1.352071 1.352049 4.638180 -8.633014 -0.223116 -3.105767 -1.793177 1.793092 -2.434841 -1.338150 -5.494567 -2.400729 -1.635393 1.500033 0.000001 -0.000000 0.000001 -11.104467 -0.228527 2.326700 0.001564 0.147263 -1.212867 -2.594696 -0.000044 0.000047 0.021482 -0.546224 4.503272 -1.969863 -0.000031 -0.000009 -0.152251 1.385408 5.775590 -2.509741 0.055699 -0.085033 0.000003 0.000002 0.000002 -11.447559 -0.000057 -0.000001 0.000416 -0.076006 0.625996 -2.882376 -0.000049 -0.000003 0.037765 -0.723792 5.974790 -2.055764 0.000067 -0.000009 0.038735 -0.733456 6.049191 -2.746139 -0.000014 -0.000031 -0.000000 0.000001 0.000003 -10.605573 0.267209 -2.247445 0.009002 -0.353747 2.914637 -3.015954 0.000017 -0.000016 -0.064385 -0.001800 7.691460 -2.233120 -0.006910 -0.037381 0.070818 -1.917756 8.097695 -2.304534 0.000017 -0.000055 -0.000000 0.000001 -0.000000 -9.628196 -0.343533 -4.027740 0.024171 -0.579363 4.777128 -2.737676 -0.000010 -0.000003 0.092874 -1.132861 9.372790 -1.441862 0.000049 -0.000054 0.092869 -1.132865 9.372790 -2.097328 -0.000046 0.000044 -0.000001 0.000001 0.000003 6.711154 15.024486 -2.119623 -0.463833 1.396780 14.936239 8.685031 -1.766237 -2.569623 -79.008159 22.037870 -17.905908 24.573875 -0.000099 -0.000008 0.000253 -135.487047 0.000365 23.096613 -0.000002 -0.000062 -59.692629 -5.439379 -14.963577 3.660332 -1.517695 2.006162 -3.099521 17.372463 12.083822 2.341865 -1.352032 1.352052 3.939963 7.947841 0.744791 3.105759 -1.793191 1.793093 -1.752917 3.041073 5.972974 2.400703 -1.635420 1.500032 -0.000000 0.000000 0.000003 11.104469 -0.228544 2.326704 0.003938 -0.232847 1.936965 2.594711 -0.000021 0.000042 -0.000000 0.000001 -0.000015 1.969873 -0.000038 -0.000010 0.307887 -2.863780 6.577381 2.509738 0.055681 -0.085033 -0.000000 0.000001 0.000002 11.447570 -0.000063 -0.000001 0.030604 0.648571 -5.402357 2.882396 -0.000013 -0.000008 -0.000003 -0.000070 -0.002679 2.055764 0.000046 -0.000018 0.037878 -0.721068 6.011158 2.746125 -0.000016 -0.000030 0.000000 -0.000000 -0.000000 10.605583 0.267191 -2.247441 0.077624 1.031180 -8.609529 3.015952 0.000023 -0.000022 0.001477 -0.959512 0.176763 2.233104 -0.006891 -0.037395 0.015473 0.498900 3.656069 2.304529 0.000018 -0.000047 0.000000 0.000000 0.000002 9.628199 -0.343551 -4.027736 0.438482 4.745733 -5.435550 2.737702 0.000022 -0.000009 -0.018050 -4.056894 -0.489237 1.441851 0.000016 -0.000044 0.004701 -0.254457 2.116779 2.097333 -0.000011 0.000037 0.000001 0.000001 0.000001 9.688764 -5.685183 -1.688625 -12.429083 4.135354 4.124040 -0.649575 -43.138973 1.439059 30.197062 9.924736 4.410940 0.663087 -40.700977 -4.209042 -14.672547 17.339438 -13.319291 0.862035 -15.666404 8.614093 -0.220177 -0.000000 0.000000 2.007552 -0.054584 13.323668 -0.000000 -0.000000 -0.000000 -9.688766 -5.685183 -1.688624 -23.822919 -0.032364 -10.404837 0.663484 -43.138775 1.438939 35.732954 2.217255 2.428005 -0.649919 -40.701210 -4.208930 -13.849721 -0.715538 4.773937 -0.862030 -15.666408 8.614103 -1.004380 0.000008 0.000001 -2.007558 -0.054583 13.323668 -0.000000 -0.000000 -0.000000 
-1.908448 99.213356 4.590190 1.212828 -22.625451 1.800615 -0.000000 5.245262 0.258843 -0.745883 3.933193 -2.643563 -0.031371 11.044920 -0.697583 2.861805 0.525760 0.669691 -0.035853 8.068871 -1.087744 2.854328 0.538927 0.689759 -0.040335 18.919525 -3.736109 0.652111 1.509885 -0.819968 -0.000000 8.672992 3.319309 -4.052349 9.779438 -11.813238 -0.000000 17.183884 4.948501 -0.000000 0.000000 0.000001 -6.576709 15.024478 -2.119624 -0.166612 -1.620557 -6.915513 -8.685031 -1.766236 -2.569619 -70.071614 -3.628578 33.506630 -24.573881 -0.000092 -0.000000 0.000240 138.769486 -0.000333 -23.096594 -0.000012 -0.000053 -42.520564 16.479264 -4.342599 -3.660328 -1.517700 2.006155 -2.627589 -23.317467 -9.852204 -2.341878 -1.352042 1.352050 4.638180 -8.633013 -0.223119 -3.105749 -1.793177 1.793092 -2.434846 -1.338147 -5.494572 -2.400724 -1.635405 1.500034 -0.000002 0.000001 -0.000001 -11.104472 -0.228553 2.326697 0.009628 0.365796 -3.013959 -2.594730 -0.000035 0.000042 0.013748 -0.437157 3.602676 -1.969862 -0.000015 -0.000008 -0.129602 1.496969 4.875063 -2.509733 0.055678 -0.085043 -0.000001 -0.000001 -0.000001 -11.447565 -0.000044 -0.000005 0.001788 0.157467 -1.296918 -2.882380 -0.000026 -0.000003 0.026252 -0.603832 4.982089 -2.055763 0.000046 -0.000018 0.027450 -0.617729 5.091492 -2.746125 -0.000017 -0.000035 -0.000002 0.000000 0.000000 -10.605597 0.267207 -2.247452 0.000729 -0.100107 0.824511 -3.015948 -0.000019 -0.000012 -0.063178 0.130402 6.612735 -2.233106 -0.006912 -0.037389 0.054143 -1.792478 7.056334 -2.304544 -0.000002 -0.000051 -0.000000 0.000000 0.000001 -9.628193 -0.343552 -4.027741 0.006830 -0.308116 2.538396 -2.737679 -0.000003 -0.000002 0.072048 -0.998564 8.253099 -1.441841 0.000037 -0.000045 0.072047 -0.998563 8.253101 -2.097325 -0.000048 0.000040 -0.000001 0.000001 0.000002 6.711153 15.024473 -2.119624 -0.879551 3.103884 15.589963 8.685045 -1.766198 -2.569639 -81.144471 20.750093 -18.837986 24.573881 -0.000087 -0.000005 0.000260 -137.008349 0.000374 23.096603 -0.000004 -0.000049 -61.312580 -7.613871 -12.215675 3.660315 -1.517694 2.006162 -3.099523 17.372465 12.083824 2.341886 -1.352052 1.352051 3.939965 7.947842 0.744795 3.105759 -1.793176 1.793095 -1.752915 3.041072 5.972973 2.400721 -1.635407 1.500037 -0.000000 -0.000000 -0.000001 11.104459 -0.228554 2.326705 0.005907 -0.285278 2.373307 2.594723 -0.000031 0.000046 0.000002 0.000003 -0.000207 1.969854 -0.000014 -0.000003 0.124847 -2.400276 2.593086 2.509734 0.055683 -0.085036 0.000001 -0.000003 -0.000003 11.447556 -0.000042 0.000004 0.013221 0.426641 -3.550662 2.882369 -0.000068 -0.000003 -0.000001 -0.000069 -0.003063 2.055755 0.000043 -0.000017 0.005279 -0.269198 2.242303 2.746121 -0.000018 -0.000033 -0.000001 0.000001 0.000001 10.605594 0.267210 -2.247442 0.043039 0.768854 -6.408245 3.015960 0.000029 -0.000021 -0.008909 -0.881705 -0.469684 2.233114 -0.006919 -0.037384 0.001458 0.926607 0.096523 2.304543 0.000015 -0.000050 0.000000 0.000001 -0.000003 9.628188 -0.343569 -4.027733 0.315622 4.574574 -3.923507 2.737691 0.000003 -0.000006 -0.014755 -3.894990 -1.835852 1.441856 0.000039 -0.000043 0.001845 0.159517 -1.326782 2.097328 -0.000049 0.000038 -0.000000 -0.000000 -0.000003 9.688763 -5.685186 -1.688623 -11.379496 3.927053 4.967267 -0.649574 -43.138977 1.439057 30.238047 9.801563 4.430830 0.663087 -40.700974 -4.209043 -14.724194 17.865519 -13.624784 0.862035 -15.666404 8.614092 -0.251010 0.000002 0.000002 2.007555 -0.054584 13.323668 0.000000 0.000000 0.000000 -9.688764 -5.685172 -1.688620 -22.769520 -0.540083 -9.206354 0.663484 -43.138763 1.438942 35.483683 2.284045 1.807644 -0.649922 -40.701214 -4.208930 -13.844490 -0.704714 4.722791 -0.862031 -15.666407 8.614104 -1.130739 -0.000007 -0.000001 -2.007555 -0.054583 13.323671 0.000000 0.000000 0.000000 
-2.278729 98.788734 4.585259 -0.428068 -23.535497 0.380491 -0.000000 5.245270 0.258842 0.237758 5.941702 -2.520734 -0.031371 11.044925 -0.697583 3.263253 0.814668 1.268892 -0.035852 8.068869 -1.087744 3.245006 0.832076 1.302570 -0.040334 18.919529 -3.736109 1.306691 1.551794 -0.878755 0.000000 8.672972 3.319309 -2.655491 10.058981 -12.325600 -0.000001 17.183868 4.948500 -0.000000 0.000000 0.000001 -6.576707 15.024496 -2.119624 0.032126 -0.435081 -5.702189 -8.685030 -1.766219 -2.569623 -64.326223 -4.346541 33.553284 -24.573879 -0.000074 0.000001 0.000208 138.703848 -0.000332 -23.096609 -0.000003 -0.000049 -40.057680 15.540028 -5.052124 -3.660321 -1.517689 2.006166 -2.627602 -23.317462 -9.852216 -2.341870 -1.352057 1.352049 4.638178 -8.633013 -0.223119 -3.105767 -1.793177 1.793090 -2.434845 -1.338148 -5.494567 -2.400742 -1.635406 1.500041 -0.000002 0.000001 -0.000000 -11.104471 -0.228538 2.326708 0.017243 0.489477 -4.034563 -2.594726 -0.000031 0.000044 0.010134 -0.375302 3.092382 -1.969856 -0.000031 -0.000005 -0.115990 1.560020 4.364739 -2.509754 0.055682 -0.085033 0.000002 0.000000 0.000001 -11.447571 -0.000048 0.000002 0.006891 0.309491 -2.549709 -2.882368 -0.000039 -0.000001 0.019886 -0.525563 4.335384 -2.055777 0.000056 -0.000024 0.021133 -0.542247 4.467571 -2.746136 0.000003 -0.000031 0.000002 -0.000001 -0.000001 -10.605586 0.267210 -2.247440 0.000561 0.088266 -0.726956 -3.015948 0.000013 -0.000023 -0.060662 0.228511 5.812016 -2.233114 -0.006927 -0.037384 0.043246 -1.699303 6.283415 -2.304547 0.000033 -0.000047 -0.000001 -0.000001 -0.000001 -9.628198 -0.343552 -4.027737 0.000573 -0.089375 0.736079 -2.737690 0.000023 -0.000009 0.057190 -0.890158 7.351719 -1.441851 0.000024 -0.000041 0.057189 -0.890152 7.351728 -2.097324 -0.000045 0.000044 -0.000000 0.000000 -0.000002 6.711157 15.024495 -2.119623 -1.191728 4.376411 15.848587 8.685031 -1.766243 -2.569612 -79.761242 18.663483 -22.125030 24.573875 -0.000087 0.000008 0.000241 -137.846482 0.000344 23.096619 -0.000017 -0.000057 -61.168005 -9.480503 -8.887216 3.660323 -1.517680 2.006162 -3.099523 17.372463 12.083824 2.341883 -1.352062 1.352051 3.939963 7.947841 0.744796 3.105766 -1.793172 1.793096 -1.752916 3.041073 5.972977 2.400718 -1.635404 1.500036 -0.000000 0.000000 0.000003 11.104461 -0.228509 2.326706 0.002501 -0.185647 1.544214 2.594718 -0.000038 0.000044 0.001479 0.142645 -1.186462 1.969853 -0.000051 -0.000007 -0.060206 -1.795805 -2.458382 2.509722 0.055695 -0.085042 0.000001 0.000000 -0.000001 11.447553 -0.000052 0.000004 0.009203 0.356025 -2.962367 2.882381 -0.000010 -0.000005 0.007244 0.315833 -2.630571 2.055765 0.000076 -0.000024 0.006790 0.306140 -2.544161 2.746139 -0.000012 -0.000028 0.000002 0.000000 0.000000 10.605572 0.267207 -2.247438 0.029325 0.634950 -5.288557 3.015944 0.000032 -0.000015 -0.051429 -0.434749 -4.169451 2.233117 -0.006884 -0.037385 0.022333 1.474073 -4.461678 2.304535 0.000015 -0.000047 -0.000000 0.000000 0.000000 9.628185 -0.343536 -4.027737 0.283630 4.528377 -3.520345 2.737705 0.000052 -0.000007 0.022958 -3.363512 -6.265902 1.441857 0.000049 -0.000045 0.034778 0.691305 -5.759464 2.097332 -0.000015 0.000041 -0.000000 0.000000 -0.000001 9.688765 -5.685169 -1.688624 -10.545674 4.691259 6.212517 -0.649576 -43.138966 1.439058 32.164860 9.501270 4.660513 0.663088 -40.700970 -4.209042 -15.798318 18.202794 -14.206390 0.862035 -15.666404 8.614093 -0.187189 -0.000001 -0.000001 2.007551 -0.054584 13.323666 -0.000000 -0.000001 -0.000000 -9.688764 -5.685183 -1.688624 -21.949629 -1.078120 -7.307725 0.663488 -43.138779 1.438938 36.914468 2.790445 0.075109 -0.649918 -40.701210 -4.208930 -14.653375 -0.799436 5.021605 -0.862031 -15.666407 8.614103 -1.263353 0.000002 -0.000000 -2.007558 -0.054583 13.323668 -0.000000 0.000000 -0.000000 
